<svg xmlns="http://www.w3.org/2000/svg" xmlns:xlink="http://www.w3.org/1999/xlink" viewBox="0 0 2877.17 1138.16"><defs><style>.cls-1{fill:#00aeef;}.cls-2{fill:#fbb040;}.cls-3{fill:url(#linear-gradient);}.cls-4{fill:url(#linear-gradient-2);}</style><linearGradient id="linear-gradient" x1="163.52" y1="588.21" x2="882.03" y2="588.21" gradientUnits="userSpaceOnUse"><stop offset="0" stop-color="#00aeef"/><stop offset="0.15" stop-color="#01a9ea"/><stop offset="0.32" stop-color="#059cdc"/><stop offset="0.51" stop-color="#0b85c5"/><stop offset="0.7" stop-color="#1465a5"/><stop offset="0.89" stop-color="#1f3c7c"/><stop offset="1" stop-color="#262262"/></linearGradient><linearGradient id="linear-gradient-2" x1="163.52" y1="403.65" x2="882.03" y2="403.65" gradientUnits="userSpaceOnUse"><stop offset="0" stop-color="#fff200"/><stop offset="0.66" stop-color="#fbb040"/></linearGradient></defs><g id="Layer_1" data-name="Layer 1"><path class="cls-1" d="M1041.09,496.61c0,86.06-70.29,155.45-157.25,155.45-89.67,0-160.86-68.49-160.86-155,0-43.71,17.57-84.26,50.46-115.35,28.84-27,68-41.9,112.2-41.9C974.4,339.81,1041.09,406.94,1041.09,496.61Zm-243.76-.45c0,49.56,37.39,88.31,85.15,88.31,46.86,0,84.71-38.75,84.71-87,0-51.37-36-90.12-84.26-90.12C833.82,407.39,797.33,445.24,797.33,496.16Z"/><path class="cls-1" d="M1128.05,437.58v19.83c16.22-19.38,36-27.94,64.88-27.94a113.43,113.43,0,0,1,55.87,14.42c35.15,20.27,53.62,54.52,53.62,99.58,0,68-41.45,110.84-107.24,110.84-28.39,0-50.46-8.56-67.13-26.14v110h-68.49V437.58Zm0,106.79c0,33.79,19.37,55.87,49.11,55.87,30.19,0,52.27-23.43,52.27-55.42,0-33.8-21.18-58.58-50-58.58C1149.22,486.24,1128.05,510.12,1128.05,544.37Z"/><path class="cls-1" d="M1399.29,575.91c0,9.91,3.61,12.61,16.67,13.52h7.21V646.2h-52.71c-29.29-.9-40.11-13.07-39.66-43.26V493h-21.17V436.23h21.17V384.86h68.49v51.37h23.88V493h-23.88Z"/><path class="cls-1" d="M1521.85,377.2c0,20.73-15.77,36.05-36.5,36.05-21.18,0-36.5-15.32-36.5-36.5s15.32-36.49,37-36.49C1507,340.26,1521.85,355.58,1521.85,377.2Zm-2.26,269h-68.48V437.58h68.48Z"/><path class="cls-1" d="M1607.46,437.58v25.23c12.16-23,29.29-33.34,56.32-33.34,26.58,0,47.31,11.71,57.22,33.34,14-23,32.9-33.34,61.28-33.34,19.83,0,37.4,6.31,49.56,18.47,13.52,13.52,18.48,28.84,18.48,60.38V646.2h-68.49V520.49c0-21.18-9.91-34.25-26.58-34.25s-26.59,13.07-26.59,34.25V646.2h-68.49V522.74c0-23-9.91-36.5-27-36.5-8.11,0-15.77,3.61-20.28,9.92-4,6.3-5.4,12.16-5.4,26.58V646.2H1539V437.58Z"/><path class="cls-1" d="M2067.94,437.58V568.7c0,32-7.2,50-24.78,64.43-17.57,14-41.45,21.18-71.19,21.18-31.09,0-57.67-8.11-74.34-23-15.77-13.52-23-33.79-23-62.63V437.58h68.48V563.74c0,21.63,10.37,33.8,28.84,33.8,17.12,0,27.49-10.82,27.49-28.84V437.58Z"/><path class="cls-1" d="M2188.7,499.31v-4.06c0-9.46-8.56-16.67-19.83-16.67-9.46,0-16.22,5.86-16.22,14,0,8.56,6.31,13.52,23.88,18.47,58.58,16.68,79.75,36.05,79.75,72.55,0,42.35-33.79,70.74-84.7,70.74s-82.91-26.59-84.26-70.29h64.88c2.71,15.32,7.66,21.17,19.38,21.17,9,0,15.77-6.3,15.77-14.86,0-9.47-6.76-14.42-34.7-23.43-45.51-14.42-65.33-35.6-65.33-68.49,0-41.45,33.79-68.94,84.26-68.94,49.56,0,80.2,26.13,80.65,69.84Z"/><path class="cls-2" d="M2355.41,646.2h-73V345.66H2385.6c71.19,0,111.74,36,111.74,98.68,0,63.08-41.9,104.08-107.24,104.08h-34.69Zm20.27-157.7c30.19,0,47.77-15.32,47.77-41.46,0-24.78-17.13-41.45-42.81-41.45h-25.23V488.5Z"/><path class="cls-2" d="M2660.45,437.58h72.09L2618.54,739H2545.1l37.4-96.88L2510,437.58h72.55l36,109.49Z"/><path class="cls-3" d="M702.41,857.66c-98.8,0-179.63-80.48-179.63-179.63V498.4c0,98.8-80.84,179.63-179.63,179.63S163.52,597.56,163.52,498.4V318.77c99.24,0,179.63,80.48,179.63,179.63,0-98.8,80.83-179.63,179.63-179.63,99.24,0,179.63,80.48,179.63,179.63V678H882C882,776.82,801.56,857.66,702.41,857.66Zm44.9-80.84a18,18,0,1,0,18,18A18,18,0,0,0,747.31,776.82Z"/><path class="cls-4" d="M702.41,134.2c-98.8,0-179.63,80.48-179.63,179.63V493.46c0-98.8-80.84-179.63-179.63-179.63S163.52,394.31,163.52,493.46V673.09c99.24,0,179.63-80.47,179.63-179.63,0,98.8,80.83,179.63,179.63,179.63,99.24,0,179.63-80.48,179.63-179.63V313.83H882C882,215,801.56,134.2,702.41,134.2ZM747.31,215a18,18,0,1,1,18-18A18,18,0,0,1,747.31,215Z"/></g></svg>