<svg xmlns="http://www.w3.org/2000/svg" xmlns:xlink="http://www.w3.org/1999/xlink" viewBox="0 0 3487.41 1123.38"><defs><style>.cls-1{fill:#00aeef;}.cls-2{fill:#fbb040;}.cls-3{fill:url(#linear-gradient);}.cls-4{fill:url(#linear-gradient-2);}.cls-5{fill:url(#linear-gradient-3);}.cls-6{fill:url(#linear-gradient-4);}.cls-7{fill:url(#linear-gradient-5);}.cls-8{fill:url(#linear-gradient-6);}</style><linearGradient id="linear-gradient" x1="914.61" y1="389.38" x2="914.61" y2="685.48" gradientUnits="userSpaceOnUse"><stop offset="0" stop-color="#00aeef"/><stop offset="0.15" stop-color="#01a9ea"/><stop offset="0.32" stop-color="#059cdc"/><stop offset="0.51" stop-color="#0b85c5"/><stop offset="0.7" stop-color="#1465a5"/><stop offset="0.89" stop-color="#1f3c7c"/><stop offset="1" stop-color="#262262"/></linearGradient><linearGradient id="linear-gradient-2" x1="42.38" y1="389.38" x2="42.38" y2="685.48" gradientTransform="matrix(-1.05, 0, 0, 1, 517.79, 0)" xlink:href="#linear-gradient"/><linearGradient id="linear-gradient-3" x1="914.61" y1="462.48" x2="914.61" y2="758.58" gradientUnits="userSpaceOnUse"><stop offset="0" stop-color="#fff200"/><stop offset="0.66" stop-color="#fbb040"/></linearGradient><linearGradient id="linear-gradient-4" x1="42.38" y1="462.48" x2="42.38" y2="758.58" gradientTransform="matrix(-1.05, 0, 0, 1, 517.79, 0)" xlink:href="#linear-gradient-3"/><linearGradient id="linear-gradient-5" x1="914.61" y1="540.04" x2="914.61" y2="836.14" xlink:href="#linear-gradient"/><linearGradient id="linear-gradient-6" x1="42.38" y1="540.04" x2="42.38" y2="836.14" gradientTransform="matrix(-1.05, 0, 0, 1, 517.79, 0)" xlink:href="#linear-gradient"/></defs><g id="Layer_1" data-name="Layer 1"><path class="cls-1" d="M1546.56,600.49c0,86.06-70.29,155.45-157.25,155.45-89.66,0-160.85-68.49-160.85-155,0-43.7,17.57-84.26,50.46-115.35,28.84-27,68-41.9,112.2-41.9C1479.88,443.69,1546.56,510.83,1546.56,600.49ZM1302.8,600c0,49.56,37.4,88.31,85.16,88.31,46.86,0,84.71-38.75,84.71-87,0-51.36-36.05-90.11-84.26-90.11C1339.3,511.28,1302.8,549.13,1302.8,600Z"/><path class="cls-1" d="M1633.52,541.47v19.82c16.22-19.37,36-27.94,64.89-27.94a113.43,113.43,0,0,1,55.87,14.42c35.14,20.28,53.62,54.52,53.62,99.58,0,68-41.46,110.84-107.24,110.84-28.39,0-50.47-8.56-67.14-26.13V842H1565V541.47Zm0,106.78c0,33.8,19.38,55.87,49.12,55.87,30.18,0,52.26-23.43,52.26-55.42,0-33.79-21.17-58.57-50-58.57C1654.7,590.13,1633.52,614,1633.52,648.25Z"/><path class="cls-1" d="M1904.77,679.79c0,9.92,3.6,12.62,16.67,13.52h7.21v56.77h-52.72c-29.28-.9-40.1-13.06-39.65-43.25V596.89H1815.1V540.11h21.18V488.75h68.49v51.36h23.88v56.78h-23.88Z"/><path class="cls-1" d="M2027.33,481.09c0,20.72-15.78,36-36.5,36-21.18,0-36.5-15.32-36.5-36.49s15.32-36.5,37-36.5C2012.46,444.14,2027.33,459.46,2027.33,481.09Zm-2.26,269h-68.49V541.47h68.49Z"/><path class="cls-1" d="M2112.94,541.47V566.7c12.16-23,29.28-33.35,56.32-33.35,26.58,0,47.31,11.72,57.22,33.35,14-23,32.89-33.35,61.28-33.35,19.82,0,37.4,6.31,49.56,18.48,13.52,13.52,18.48,28.84,18.48,60.38V750.08h-68.49V624.37c0-21.18-9.91-34.24-26.59-34.24s-26.58,13.06-26.58,34.24V750.08h-68.49V626.62c0-23-9.91-36.49-27-36.49-8.11,0-15.77,3.6-20.28,9.91-4.05,6.31-5.4,12.17-5.4,26.58V750.08h-68.49V541.47Z"/><path class="cls-1" d="M2573.42,541.47V672.58c0,32-7.21,50-24.78,64.44-17.57,14-41.45,21.17-71.19,21.17-31.09,0-57.67-8.11-74.35-23-15.77-13.51-23-33.79-23-62.63V541.47h68.48V667.63c0,21.62,10.37,33.79,28.84,33.79,17.12,0,27.48-10.81,27.48-28.84V541.47Z"/><path class="cls-1" d="M2694.18,603.19v-4.05c0-9.46-8.57-16.67-19.83-16.67-9.46,0-16.22,5.86-16.22,14,0,8.56,6.31,13.51,23.88,18.47,58.58,16.67,79.75,36.05,79.75,72.54,0,42.36-33.79,70.74-84.71,70.74s-82.9-26.58-84.25-70.29h64.88c2.7,15.32,7.66,21.18,19.37,21.18,9,0,15.77-6.31,15.77-14.87,0-9.46-6.75-14.42-34.69-23.43-45.51-14.42-65.33-35.59-65.33-68.49,0-41.45,33.79-68.94,84.25-68.94,49.57,0,80.21,26.14,80.66,69.84Z"/><path class="cls-2" d="M2860.89,750.08h-73V449.55h103.18c71.2,0,111.75,36,111.75,98.67,0,63.09-41.91,104.09-107.24,104.09h-34.69Zm20.27-157.7c30.19,0,47.76-15.32,47.76-41.45,0-24.78-17.12-41.46-42.8-41.46h-25.23v82.91Z"/><path class="cls-2" d="M3165.92,541.47H3238L3124,842.9h-73.44L3088,746l-72.54-204.56H3088L3124,651Z"/><path class="cls-1" d="M1683.19,904.67h-7.87V812.54h7.87Z"/><path class="cls-1" d="M1744.52,812.54h6.91v92.13h-6.91V892.38c-6.9,9.39-13.81,13.4-23.34,13.4-17.13,0-29.29-13.54-29.29-32.6S1704.05,840,1720.76,840a30.94,30.94,0,0,1,13.54,3.18c4.14,2.07,6.49,4,10.22,8.84Zm-45.44,60.78c0,15.33,9.11,26,22.24,26,13.53,0,23.34-11.19,23.34-26.53,0-15.74-9-26.24-22.52-26.24C1708.33,846.52,1699.08,857.29,1699.08,873.32Z"/><path class="cls-1" d="M1766.62,875.8c.56,6.08,1.66,9.26,4.42,13.26a23.19,23.19,0,0,0,19.21,10.23,25.21,25.21,0,0,0,21.41-12.44l5.66,3c-4.7,9.53-15.47,15.89-26.94,15.89-18.23,0-31.22-13.54-31.22-32.6,0-19.34,13-33.16,31.22-33.16,17.68,0,31.22,13.68,31.22,31.36,0,.83-.14,2.49-.27,4.42Zm47.38-6.49c-.41-5.53-1.38-8.56-3.73-12.29a24.15,24.15,0,0,0-20-10.5,22.54,22.54,0,0,0-19.62,10.77c-2.07,3.32-3,6.22-3.73,12Z"/><path class="cls-1" d="M1876.3,841.13h6.91v63.54h-6.91V890.58c-6.35,10.36-14,15.2-23.76,15.2-17.12,0-29.42-13.68-29.42-32.88S1835.28,840,1852.41,840c10.08,0,17.82,4.15,23.89,12.85ZM1836,854.67a32.39,32.39,0,0,0-5.67,18.65c0,14.91,9.54,26,22.24,26,13.27,0,23.9-12.3,23.9-27.36s-9.53-25.41-23.48-25.41C1845.36,846.52,1840.11,849,1836,854.67Z"/><path class="cls-1" d="M1896.47,904.67V812.54h6.91v92.13Z"/><path class="cls-1" d="M1995.65,812.54h6.91v92.13h-6.91V892.38c-6.91,9.39-13.81,13.4-23.34,13.4-17.13,0-29.29-13.54-29.29-32.6S1955.18,840,1971.89,840a31,31,0,0,1,13.54,3.18c4.14,2.07,6.49,4,10.22,8.84Zm-45.45,60.78c0,15.33,9.12,26,22.24,26,13.54,0,23.35-11.19,23.35-26.53,0-15.74-9-26.24-22.52-26.24C1959.46,846.52,1950.2,857.29,1950.2,873.32Z"/><path class="cls-1" d="M2024.52,823.45a5.19,5.19,0,0,1-5.11,5.11,5.25,5.25,0,0,1,0-10.5A5.17,5.17,0,0,1,2024.52,823.45Zm-1.79,81.22h-6.91V841.13h6.91Z"/><path class="cls-1" d="M2043,841.13v9.26c5.25-7.33,10.64-10.37,18.23-10.37a19,19,0,0,1,12,3.87c2.21,1.8,3.46,3.73,5.11,8.15,4.84-8.56,10.78-12,20.59-12,7.59,0,13.4,2.49,16.57,7.05,2.63,4,3.18,7,3.18,17.41v40.19h-6.91V866.55c0-10.5,0-10.92-1.93-14.09-2.07-3.73-6.77-5.94-12.71-5.94-10.5,0-16.3,7-16.3,20v38.12H2074V866.55c0-8.71-.83-12.71-3.31-15.75s-5.94-4.28-10.64-4.28c-10.5,0-17,7.73-17,20v38.12h-6.91l.14-63.54Z"/><path class="cls-1" d="M2133.51,875.8c.55,6.08,1.66,9.26,4.42,13.26a23.17,23.17,0,0,0,19.2,10.23,25.2,25.2,0,0,0,21.41-12.44l5.67,3c-4.7,9.53-15.48,15.89-26.94,15.89-18.24,0-31.22-13.54-31.22-32.6,0-19.34,13-33.16,31.22-33.16,17.68,0,31.22,13.68,31.22,31.36,0,.83-.14,2.49-.28,4.42Zm47.38-6.49c-.41-5.53-1.38-8.56-3.73-12.29a24.17,24.17,0,0,0-20-10.5,22.55,22.55,0,0,0-19.62,10.77c-2.07,3.32-3,6.22-3.72,12Z"/><path class="cls-1" d="M2202.16,841.13v9.53c6.08-7.46,12-10.64,19.76-10.64a20.6,20.6,0,0,1,14.09,5c4,3.59,5.38,7.73,5.38,15.47v44.2h-6.9V863.51c0-6.63-.69-10.22-2.63-12.71s-6.08-4.28-10.77-4.28a18.57,18.57,0,0,0-13.82,5.8c-3.86,4-5.11,7.32-5.11,13.4v38.95h-6.9V841.13Z"/><path class="cls-1" d="M2284.77,857.84c0-7.32-5.25-11.46-14.23-11.46-8.56,0-13.95,4.14-13.95,10.64s3.31,9.25,15,12.15c8.57,2.07,12.71,4,15.89,7.32a17.53,17.53,0,0,1,5,12c0,10.36-8.56,17.27-21.68,17.27-13.82,0-21.42-6.22-22.8-18.79h7.05c.55,7.88,6.49,12.57,16,12.57,8.57,0,14.23-4.42,14.23-11,0-6.35-4.28-9.81-15.89-12.57-7.45-1.8-11.46-3.59-14.64-6.49a16.33,16.33,0,0,1-5.39-12c0-10.36,8.71-17.41,21.28-17.41,12.84,0,20.72,6.64,21.27,17.82Z"/><path class="cls-1" d="M2309.49,823.45a5.19,5.19,0,0,1-5.11,5.11,5.25,5.25,0,0,1,0-10.5A5.17,5.17,0,0,1,2309.49,823.45Zm-1.79,81.22h-6.91V841.13h6.91Z"/><path class="cls-1" d="M2371,851.21c4.84,5.94,7.05,12.71,7.05,21.69,0,18.51-13.81,32.88-31.5,32.88a31.69,31.69,0,0,1-24-11c-4.42-5.25-6.91-13.26-6.91-22.1,0-10.36,3-18.24,9.26-24a32.06,32.06,0,0,1,22.1-8.57A30.69,30.69,0,0,1,2371,851.21ZM2322.75,873c0,15.61,9.67,26.25,24,26.25,13.95,0,24-11.06,24-26.39,0-8.56-2.35-14.92-7.19-19.61a24.81,24.81,0,0,0-16.71-6.77C2332.42,846.52,2322.75,857.15,2322.75,873Z"/><path class="cls-1" d="M2392.51,841.13v9.53c6.08-7.46,12-10.64,19.76-10.64a20.6,20.6,0,0,1,14.09,5c4,3.59,5.38,7.73,5.38,15.47v44.2h-6.9V863.51c0-6.63-.69-10.22-2.63-12.71s-6.08-4.28-10.77-4.28a18.57,18.57,0,0,0-13.82,5.8c-3.86,4-5.11,7.32-5.11,13.4v38.95h-6.9V841.13Z"/><path class="cls-1" d="M2526.23,851.21c4.83,5.94,7,12.71,7,21.69,0,18.51-13.81,32.88-31.49,32.88a31.69,31.69,0,0,1-24-11c-4.42-5.25-6.91-13.26-6.91-22.1,0-10.36,3-18.24,9.26-24a32.06,32.06,0,0,1,22.1-8.57A30.71,30.71,0,0,1,2526.23,851.21ZM2478,873c0,15.61,9.67,26.25,24,26.25,14,0,24-11.06,24-26.39,0-8.56-2.35-14.92-7.18-19.61a24.85,24.85,0,0,0-16.72-6.77C2487.69,846.52,2478,857.15,2478,873Z"/><path class="cls-1" d="M2547.78,841.13V852.6c2.07-4.56,3.45-6.36,5.94-8.43a21.27,21.27,0,0,1,12.84-4.15h2.77v6.77H2567c-11.75,0-19.89,10.36-19.2,24.73v33.15h-6.91V841.13Z"/><path class="cls-1" d="M2617.53,812.54h6.91v92.13h-6.91V892.38c-6.9,9.39-13.81,13.4-23.34,13.4-17.13,0-29.29-13.54-29.29-32.6S2577.06,840,2593.77,840a30.94,30.94,0,0,1,13.54,3.18c4.15,2.07,6.49,4,10.22,8.84Zm-45.44,60.78c0,15.33,9.11,26,22.24,26,13.53,0,23.34-11.19,23.34-26.53,0-15.74-9-26.24-22.51-26.24C2581.34,846.52,2572.09,857.29,2572.09,873.32Z"/><path class="cls-1" d="M2639.64,875.8c.55,6.08,1.65,9.26,4.42,13.26a23.16,23.16,0,0,0,19.2,10.23,25.2,25.2,0,0,0,21.41-12.44l5.66,3c-4.69,9.53-15.47,15.89-26.93,15.89-18.24,0-31.22-13.54-31.22-32.6,0-19.34,13-33.16,31.22-33.16,17.68,0,31.21,13.68,31.21,31.36,0,.83-.13,2.49-.27,4.42Zm47.38-6.49c-.42-5.53-1.38-8.56-3.73-12.29a24.17,24.17,0,0,0-20-10.5,22.55,22.55,0,0,0-19.62,10.77c-2.07,3.32-3,6.22-3.73,12Z"/><path class="cls-1" d="M2708.29,841.13V852.6c2.07-4.56,3.45-6.36,5.94-8.43a21.28,21.28,0,0,1,12.85-4.15h2.76v6.77h-2.35c-11.74,0-19.89,10.36-19.2,24.73v33.15h-6.91V841.13Z"/><path class="cls-1" d="M2774,904.67h-6.91v-57h-9.53v-6.49h9.53V829.94c0-5.8,1.25-9.81,4-12.85a15.65,15.65,0,0,1,11.19-4.69,18.39,18.39,0,0,1,2.48.14v5.8c-8.42,1-10.49,3.17-10.77,11.6v11.19h10.77v6.49H2774Z"/><path class="cls-1" d="M2797.25,823.45a5.19,5.19,0,0,1-5.11,5.11,5.25,5.25,0,0,1,0-10.5A5.17,5.17,0,0,1,2797.25,823.45Zm-1.8,81.22h-6.9V841.13h6.9Z"/><path class="cls-1" d="M2815.76,841.13v9.53c6.08-7.46,12-10.64,19.75-10.64,5.66,0,10.64,1.8,14.09,5,4,3.59,5.39,7.73,5.39,15.47v44.2h-6.91V863.51c0-6.63-.69-10.22-2.62-12.71s-6.08-4.28-10.78-4.28a18.55,18.55,0,0,0-13.81,5.8c-3.87,4-5.11,7.32-5.11,13.4v38.95h-6.91V841.13Z"/><path class="cls-1" d="M2914.94,812.54h6.91v92.13h-6.91V892.38c-6.91,9.39-13.81,13.4-23.35,13.4-17.12,0-29.28-13.54-29.28-32.6S2874.47,840,2891.18,840a31,31,0,0,1,13.54,3.18c4.14,2.07,6.49,4,10.22,8.84Zm-45.45,60.78c0,15.33,9.12,26,22.24,26,13.54,0,23.35-11.19,23.35-26.53,0-15.74-9-26.24-22.52-26.24C2878.75,846.52,2869.49,857.29,2869.49,873.32Z"/><path class="cls-1" d="M2937,875.8c.55,6.08,1.66,9.26,4.42,13.26a23.18,23.18,0,0,0,19.2,10.23,25.18,25.18,0,0,0,21.41-12.44l5.67,3c-4.7,9.53-15.47,15.89-26.94,15.89-18.23,0-31.22-13.54-31.22-32.6,0-19.34,13-33.16,31.22-33.16,17.68,0,31.22,13.68,31.22,31.36,0,.83-.14,2.49-.28,4.42Zm47.38-6.49c-.41-5.53-1.38-8.56-3.73-12.29a24.17,24.17,0,0,0-20-10.5,22.52,22.52,0,0,0-19.61,10.77c-2.07,3.32-3,6.22-3.73,12Z"/><path class="cls-1" d="M3005.69,841.13V852.6c2.08-4.56,3.46-6.36,5.94-8.43a21.3,21.3,0,0,1,12.85-4.15h2.76v6.77h-2.34c-11.75,0-19.9,10.36-19.21,24.73v33.15h-6.9V841.13Z"/><path class="cls-3" d="M986.13,389.38c-79.1,0-143.82,64.43-143.82,143.81v8.47c0-78.84-64.29-143.38-143-143.81V556.69c7.58,72.11,69,128.79,143,128.79A143.83,143.83,0,0,0,986.13,541.66v-8.47H1130C1130,454.09,1065.52,389.38,986.13,389.38Zm36,64.71a14.38,14.38,0,1,1,14.39-14.38A14.42,14.42,0,0,1,1022.08,454.09Z"/><path class="cls-4" d="M398.28,389.38c83,0,150.91,64.43,150.91,143.81v8.47c0-78.84,67.47-143.38,150.09-143.81V556.69c-7.95,72.11-72.41,128.79-150.09,128.79-83.38,0-150.91-64.43-150.91-143.82v-8.47H247.36C247.36,454.09,315,389.38,398.28,389.38Zm-37.73,64.71c8.3,0,15.09-6.47,15.09-14.38s-6.79-14.38-15.09-14.38-15.1,6.47-15.1,14.38S352.25,454.09,360.55,454.09Z"/><path class="cls-5" d="M986.13,462.48c-79.1,0-143.82,64.43-143.82,143.82v8.46c0-78.83-64.29-143.37-143-143.8V629.8c7.58,72.1,69,128.78,143,128.78A143.83,143.83,0,0,0,986.13,614.76V606.3H1130C1130,527.2,1065.52,462.48,986.13,462.48Zm36,64.72a14.39,14.39,0,1,1,14.39-14.38A14.42,14.42,0,0,1,1022.08,527.2Z"/><path class="cls-6" d="M398.28,462.48c83,0,150.91,64.43,150.91,143.82v8.46c0-78.83,67.47-143.37,150.09-143.8V629.8c-7.95,72.1-72.41,128.78-150.09,128.78-83.38,0-150.91-64.43-150.91-143.82V606.3H247.36C247.36,527.2,315,462.48,398.28,462.48ZM360.55,527.2c8.3,0,15.09-6.47,15.09-14.38s-6.79-14.39-15.09-14.39-15.1,6.48-15.1,14.39S352.25,527.2,360.55,527.2Z"/><path class="cls-7" d="M986.13,540c-79.1,0-143.82,64.43-143.82,143.82v8.47c0-78.84-64.29-143.38-143-143.81V707.36c7.58,72.1,69,128.78,143,128.78A143.82,143.82,0,0,0,986.13,692.33v-8.47H1130C1130,604.76,1065.52,540,986.13,540Zm36,64.72a14.38,14.38,0,1,1,14.39-14.38A14.42,14.42,0,0,1,1022.08,604.76Z"/><path class="cls-8" d="M398.28,540c83,0,150.91,64.43,150.91,143.82v8.47c0-78.84,67.47-143.38,150.09-143.81V707.36c-7.95,72.1-72.41,128.78-150.09,128.78-83.38,0-150.91-64.43-150.91-143.81v-8.47H247.36C247.36,604.76,315,540,398.28,540Zm-37.73,64.72c8.3,0,15.09-6.47,15.09-14.38S368.85,576,360.55,576s-15.1,6.47-15.1,14.38S352.25,604.76,360.55,604.76Z"/></g></svg>