<svg xmlns="http://www.w3.org/2000/svg" xmlns:xlink="http://www.w3.org/1999/xlink" viewBox="0 0 2371.85 1843.38"><defs><style>.cls-1{fill:url(#linear-gradient);}.cls-2{fill:url(#linear-gradient-2);}.cls-3{fill:url(#linear-gradient-3);}.cls-4{fill:url(#linear-gradient-4);}.cls-5{fill:url(#linear-gradient-5);}.cls-6{fill:url(#linear-gradient-6);}.cls-7{fill:#00aeef;}.cls-8{fill:#fbb040;}</style><linearGradient id="linear-gradient" x1="1651.98" y1="131.33" x2="1651.98" y2="812.14" gradientUnits="userSpaceOnUse"><stop offset="0" stop-color="#00aeef"/><stop offset="0.15" stop-color="#01a9ea"/><stop offset="0.32" stop-color="#059cdc"/><stop offset="0.51" stop-color="#0b85c5"/><stop offset="0.7" stop-color="#1465a5"/><stop offset="0.89" stop-color="#1f3c7c"/><stop offset="1" stop-color="#262262"/></linearGradient><linearGradient id="linear-gradient-2" x1="-9635.73" y1="131.33" x2="-9635.73" y2="812.14" gradientTransform="matrix(-1.05, 0, 0, 1, -9474, 0)" xlink:href="#linear-gradient"/><linearGradient id="linear-gradient-3" x1="1651.98" y1="299.41" x2="1651.98" y2="980.22" gradientUnits="userSpaceOnUse"><stop offset="0" stop-color="#fff200"/><stop offset="0.66" stop-color="#fbb040"/></linearGradient><linearGradient id="linear-gradient-4" x1="-9635.73" y1="299.41" x2="-9635.73" y2="980.22" gradientTransform="matrix(-1.05, 0, 0, 1, -9474, 0)" xlink:href="#linear-gradient-3"/><linearGradient id="linear-gradient-5" x1="1651.98" y1="477.74" x2="1651.98" y2="1158.55" xlink:href="#linear-gradient"/><linearGradient id="linear-gradient-6" x1="-9635.73" y1="477.74" x2="-9635.73" y2="1158.55" gradientTransform="matrix(-1.05, 0, 0, 1, -9474, 0)" xlink:href="#linear-gradient"/></defs><g id="Layer_1" data-name="Layer 1"><path class="cls-1" d="M1816.41,131.33c-181.87,0-330.67,148.14-330.67,330.67v19.47c0-181.26-147.82-329.66-328.86-330.65V516c17.43,165.78,158.66,296.11,328.86,296.11,182.69,0,330.67-148.14,330.67-330.67V462h330.67C2147.08,280.13,1998.94,131.33,1816.41,131.33Zm82.66,148.8a33.07,33.07,0,1,1,33.07-33.06A33.16,33.16,0,0,1,1899.07,280.13Z"/><path class="cls-2" d="M464.81,131.33c190.84,0,347,148.14,347,330.67v19.47c0-181.26,155.11-329.66,345.08-330.65V516C1138.6,681.81,990.4,812.14,811.8,812.14c-191.72,0-347-148.14-347-330.67V462h-347C117.81,280.13,273.27,131.33,464.81,131.33Zm-86.75,148.8c19.08,0,34.7-14.88,34.7-33.06S397.14,214,378.06,214s-34.7,14.88-34.7,33.07S359,280.13,378.06,280.13Z"/><path class="cls-3" d="M1816.41,299.41c-181.87,0-330.67,148.14-330.67,330.67v19.47c0-181.26-147.82-329.66-328.86-330.65V684.11c17.43,165.79,158.66,296.11,328.86,296.11,182.69,0,330.67-148.14,330.67-330.67V630.08h330.67C2147.08,448.21,1998.94,299.41,1816.41,299.41Zm82.66,148.8a33.07,33.07,0,1,1,33.07-33.06A33.16,33.16,0,0,1,1899.07,448.21Z"/><path class="cls-4" d="M464.81,299.41c190.84,0,347,148.14,347,330.67v19.47c0-181.26,155.11-329.66,345.08-330.65V684.11C1138.6,849.9,990.4,980.22,811.8,980.22c-191.72,0-347-148.14-347-330.67V630.08h-347C117.81,448.21,273.27,299.41,464.81,299.41Zm-86.75,148.8c19.08,0,34.7-14.88,34.7-33.06s-15.62-33.07-34.7-33.07-34.7,14.88-34.7,33.07S359,448.21,378.06,448.21Z"/><path class="cls-5" d="M1816.41,477.74c-181.87,0-330.67,148.14-330.67,330.67v19.47c0-181.27-147.82-329.66-328.86-330.65V862.44c17.43,165.78,158.66,296.11,328.86,296.11,182.69,0,330.67-148.14,330.67-330.67V808.41h330.67C2147.08,626.54,1998.94,477.74,1816.41,477.74Zm82.66,148.8a33.07,33.07,0,1,1,33.07-33.06A33.16,33.16,0,0,1,1899.07,626.54Z"/><path class="cls-6" d="M464.81,477.74c190.84,0,347,148.14,347,330.67v19.47c0-181.27,155.11-329.66,345.08-330.65V862.44c-18.28,165.78-166.48,296.11-345.08,296.11-191.72,0-347-148.14-347-330.67V808.41h-347C117.81,626.54,273.27,477.74,464.81,477.74Zm-86.75,148.8c19.08,0,34.7-14.88,34.7-33.06s-15.62-33.07-34.7-33.07-34.7,14.88-34.7,33.07S359,626.54,378.06,626.54Z"/><path class="cls-7" d="M453.43,1429.6c0,86.06-70.29,155.45-157.25,155.45-89.67,0-160.86-68.49-160.86-155,0-43.7,17.58-84.26,50.47-115.35,28.83-27,68-41.9,112.19-41.9C386.75,1272.8,453.43,1339.94,453.43,1429.6Zm-243.76-.45c0,49.56,37.4,88.31,85.16,88.31,46.86,0,84.71-38.75,84.71-87,0-51.36-36.05-90.11-84.26-90.11C246.17,1340.39,209.67,1378.24,209.67,1429.15Z"/><path class="cls-7" d="M540.39,1370.58v19.82c16.22-19.37,36.05-27.94,64.88-27.94a113.4,113.4,0,0,1,55.87,14.42c35.15,20.28,53.62,54.52,53.62,99.58,0,68-41.45,110.84-107.23,110.84-28.39,0-50.47-8.56-67.14-26.13v109.94H471.9V1370.58Zm0,106.78c0,33.8,19.37,55.87,49.11,55.87,30.19,0,52.27-23.43,52.27-55.42,0-33.79-21.18-58.57-50-58.57C561.57,1419.24,540.39,1443.12,540.39,1477.36Z"/><path class="cls-7" d="M811.64,1508.9c0,9.92,3.6,12.62,16.67,13.52h7.21v56.77H782.8c-29.29-.9-40.1-13.06-39.65-43.25V1426H722v-56.78h21.18v-51.36h68.49v51.36h23.88V1426H811.64Z"/><path class="cls-7" d="M934.19,1310.2c0,20.72-15.77,36-36.5,36-21.17,0-36.49-15.32-36.49-36.49s15.32-36.5,36.94-36.5C919.32,1273.25,934.19,1288.57,934.19,1310.2Zm-2.25,269H863.45V1370.58h68.49Z"/><path class="cls-7" d="M1019.8,1370.58v25.23c12.17-23,29.29-33.35,56.32-33.35,26.59,0,47.31,11.72,57.23,33.35,14-23,32.89-33.35,61.27-33.35,19.83,0,37.4,6.31,49.57,18.48,13.52,13.52,18.47,28.84,18.47,60.38v137.87h-68.49V1453.48c0-21.18-9.91-34.24-26.58-34.24S1141,1432.3,1141,1453.48v125.71h-68.49V1455.73c0-23-9.91-36.49-27-36.49-8.11,0-15.77,3.6-20.27,9.91-4.06,6.31-5.41,12.17-5.41,26.58v123.46H951.31V1370.58Z"/><path class="cls-7" d="M1480.29,1370.58v131.11c0,32-7.21,50-24.78,64.44-17.58,14-41.46,21.17-71.19,21.17-31.09,0-57.68-8.11-74.35-23-15.77-13.51-23-33.79-23-62.63V1370.58h68.49v126.16c0,21.62,10.36,33.79,28.84,33.79,17.12,0,27.48-10.81,27.48-28.84V1370.58Z"/><path class="cls-7" d="M1601,1432.3v-4c0-9.46-8.56-16.67-19.82-16.67-9.47,0-16.22,5.86-16.22,14,0,8.56,6.3,13.51,23.88,18.47,58.57,16.67,79.75,36,79.75,72.54,0,42.36-33.8,70.74-84.71,70.74s-82.91-26.58-84.26-70.29h64.88c2.71,15.32,7.67,21.18,19.38,21.18,9,0,15.77-6.31,15.77-14.87,0-9.46-6.76-14.42-34.69-23.43-45.51-14.42-65.34-35.6-65.34-68.49,0-41.45,33.8-68.94,84.26-68.94,49.56,0,80.2,26.14,80.65,69.84Z"/><path class="cls-8" d="M1767.75,1579.19h-73V1278.66h103.18c71.19,0,111.74,36,111.74,98.67,0,63.09-41.9,104.09-107.23,104.09h-34.7Zm20.28-157.7c30.19,0,47.76-15.32,47.76-41.45,0-24.78-17.12-41.46-42.81-41.46h-25.23v82.91Z"/><path class="cls-8" d="M2072.79,1370.58h72.09l-114,301.43h-73.45l37.4-96.87-72.54-204.56h72.54l36.05,109.49Z"/><path class="cls-7" d="M590.06,1733.78h-7.88v-92.13h7.88Z"/><path class="cls-7" d="M651.39,1641.65h6.91v92.13h-6.91v-12.29c-6.91,9.39-13.81,13.4-23.35,13.4-17.12,0-29.28-13.54-29.28-32.6s12.16-33.16,28.87-33.16a31,31,0,0,1,13.54,3.18c4.14,2.07,6.49,4,10.22,8.84Zm-45.45,60.78c0,15.33,9.12,26,22.24,26,13.54,0,23.35-11.19,23.35-26.53,0-15.74-9-26.24-22.52-26.24C615.2,1675.63,605.94,1686.4,605.94,1702.43Z"/><path class="cls-7" d="M673.49,1704.91c.55,6.08,1.66,9.26,4.42,13.26a23.18,23.18,0,0,0,19.2,10.23A25.2,25.2,0,0,0,718.52,1716l5.67,3c-4.7,9.53-15.47,15.89-26.94,15.89-18.23,0-31.22-13.54-31.22-32.6,0-19.34,13-33.16,31.22-33.16,17.68,0,31.22,13.68,31.22,31.36,0,.83-.14,2.49-.28,4.42Zm47.38-6.49c-.41-5.53-1.38-8.56-3.73-12.29a24.17,24.17,0,0,0-20-10.5,22.52,22.52,0,0,0-19.61,10.77c-2.08,3.32-3,6.22-3.73,12Z"/><path class="cls-7" d="M783.17,1670.24h6.91v63.54h-6.91v-14.09c-6.35,10.36-13.95,15.2-23.76,15.2-17.13,0-29.42-13.68-29.42-32.88s12.15-32.88,29.28-32.88c10.09,0,17.82,4.15,23.9,12.85Zm-40.34,13.54a32.39,32.39,0,0,0-5.66,18.65c0,14.91,9.53,26,22.24,26,13.26,0,23.9-12.3,23.9-27.36s-9.53-25.41-23.48-25.41C752.23,1675.63,747,1678.11,742.83,1683.78Z"/><path class="cls-7" d="M803.34,1733.78v-92.13h6.9v92.13Z"/><path class="cls-7" d="M902.52,1641.65h6.9v92.13h-6.9v-12.29c-6.91,9.39-13.82,13.4-23.35,13.4-17.13,0-29.28-13.54-29.28-32.6s12.15-33.16,28.87-33.16a31,31,0,0,1,13.54,3.18c4.14,2.07,6.49,4,10.22,8.84Zm-45.45,60.78c0,15.33,9.12,26,22.24,26,13.54,0,23.35-11.19,23.35-26.53,0-15.74-9-26.24-22.52-26.24C866.33,1675.63,857.07,1686.4,857.07,1702.43Z"/><path class="cls-7" d="M931.39,1652.56a5.19,5.19,0,0,1-5.11,5.11,5.25,5.25,0,1,1,0-10.5A5.17,5.17,0,0,1,931.39,1652.56Zm-1.8,81.22h-6.91v-63.54h6.91Z"/><path class="cls-7" d="M949.9,1670.24v9.26c5.25-7.33,10.63-10.37,18.23-10.37a19,19,0,0,1,12,3.87c2.21,1.8,3.45,3.73,5.11,8.15,4.83-8.56,10.78-12,20.58-12,7.6,0,13.4,2.49,16.58,7,2.62,4,3.18,7,3.18,17.41v40.19h-6.91v-38.12c0-10.5,0-10.92-1.93-14.09-2.08-3.73-6.77-5.94-12.71-5.94-10.5,0-16.3,7-16.3,20v38.12h-6.91v-38.12c0-8.71-.83-12.71-3.32-15.75s-5.94-4.28-10.63-4.28c-10.5,0-17,7.73-17,20v38.12H943l.14-63.54Z"/><path class="cls-7" d="M1040.38,1704.91c.55,6.08,1.65,9.26,4.42,13.26a23.16,23.16,0,0,0,19.2,10.23,25.2,25.2,0,0,0,21.41-12.44l5.66,3c-4.69,9.53-15.47,15.89-26.93,15.89-18.24,0-31.22-13.54-31.22-32.6,0-19.34,13-33.16,31.22-33.16,17.68,0,31.21,13.68,31.21,31.36,0,.83-.13,2.49-.27,4.42Zm47.38-6.49c-.42-5.53-1.38-8.56-3.73-12.29a24.17,24.17,0,0,0-20-10.5,22.55,22.55,0,0,0-19.62,10.77c-2.07,3.32-3,6.22-3.73,12Z"/><path class="cls-7" d="M1109,1670.24v9.53c6.08-7.46,12-10.64,19.75-10.64,5.67,0,10.64,1.8,14.09,5,4,3.59,5.39,7.73,5.39,15.47v44.2h-6.91v-41.16c0-6.63-.69-10.22-2.62-12.71s-6.08-4.28-10.78-4.28a18.57,18.57,0,0,0-13.81,5.8c-3.87,4-5.11,7.32-5.11,13.4v39h-6.91v-63.54Z"/><path class="cls-7" d="M1191.63,1687c0-7.32-5.24-11.46-14.22-11.46-8.57,0-14,4.14-14,10.64s3.32,9.25,15.06,12.15c8.57,2.07,12.71,4,15.89,7.32a17.53,17.53,0,0,1,5,12c0,10.36-8.56,17.27-21.69,17.27-13.81,0-21.41-6.22-22.79-18.79h7c.56,7.88,6.5,12.57,16,12.57,8.56,0,14.23-4.42,14.23-11.05,0-6.35-4.28-9.81-15.89-12.57-7.46-1.8-11.46-3.59-14.64-6.49a16.29,16.29,0,0,1-5.39-12c0-10.36,8.7-17.41,21.27-17.41,12.85,0,20.72,6.64,21.28,17.82Z"/><path class="cls-7" d="M1216.36,1652.56a5.19,5.19,0,0,1-5.11,5.11,5.25,5.25,0,0,1,0-10.5A5.17,5.17,0,0,1,1216.36,1652.56Zm-1.79,81.22h-6.91v-63.54h6.91Z"/><path class="cls-7" d="M1277.83,1680.32c4.84,5.94,7.05,12.71,7.05,21.69,0,18.51-13.82,32.88-31.5,32.88a31.72,31.72,0,0,1-24-11.05c-4.42-5.25-6.9-13.26-6.9-22.1,0-10.36,3-18.24,9.25-24a32.1,32.1,0,0,1,22.11-8.57A30.69,30.69,0,0,1,1277.83,1680.32Zm-48.21,21.83c0,15.61,9.67,26.25,24,26.25,13.95,0,24-11.06,24-26.39,0-8.56-2.35-14.92-7.18-19.61a24.83,24.83,0,0,0-16.71-6.77C1239.29,1675.63,1229.62,1686.26,1229.62,1702.15Z"/><path class="cls-7" d="M1299.38,1670.24v9.53c6.08-7.46,12-10.64,19.75-10.64,5.67,0,10.64,1.8,14.09,5,4,3.59,5.39,7.73,5.39,15.47v44.2h-6.91v-41.16c0-6.63-.69-10.22-2.62-12.71s-6.08-4.28-10.78-4.28a18.57,18.57,0,0,0-13.81,5.8c-3.87,4-5.11,7.32-5.11,13.4v39h-6.91v-63.54Z"/><path class="cls-7" d="M1433.09,1680.32c4.84,5.94,7.05,12.71,7.05,21.69,0,18.51-13.81,32.88-31.5,32.88a31.69,31.69,0,0,1-24-11.05c-4.42-5.25-6.91-13.26-6.91-22.1,0-10.36,3-18.24,9.26-24a32.06,32.06,0,0,1,22.1-8.57A30.69,30.69,0,0,1,1433.09,1680.32Zm-48.21,21.83c0,15.61,9.67,26.25,24,26.25,13.95,0,24-11.06,24-26.39,0-8.56-2.35-14.92-7.19-19.61a24.81,24.81,0,0,0-16.71-6.77C1394.55,1675.63,1384.88,1686.26,1384.88,1702.15Z"/><path class="cls-7" d="M1454.64,1670.24v11.47c2.07-4.56,3.46-6.36,5.94-8.43a21.3,21.3,0,0,1,12.85-4.15h2.76v6.77h-2.35c-11.74,0-19.89,10.36-19.2,24.73v33.15h-6.9v-63.54Z"/><path class="cls-7" d="M1524.4,1641.65h6.91v92.13h-6.91v-12.29c-6.91,9.39-13.81,13.4-23.34,13.4-17.13,0-29.29-13.54-29.29-32.6s12.16-33.16,28.87-33.16a31,31,0,0,1,13.54,3.18c4.14,2.07,6.49,4,10.22,8.84ZM1479,1702.43c0,15.33,9.12,26,22.24,26,13.54,0,23.35-11.19,23.35-26.53,0-15.74-9-26.24-22.52-26.24C1488.21,1675.63,1479,1686.4,1479,1702.43Z"/><path class="cls-7" d="M1546.5,1704.91c.56,6.08,1.66,9.26,4.42,13.26a23.18,23.18,0,0,0,19.2,10.23,25.21,25.21,0,0,0,21.42-12.44l5.66,3c-4.7,9.53-15.47,15.89-26.94,15.89-18.23,0-31.22-13.54-31.22-32.6,0-19.34,13-33.16,31.22-33.16,17.68,0,31.22,13.68,31.22,31.36,0,.83-.14,2.49-.27,4.42Zm47.38-6.49c-.41-5.53-1.38-8.56-3.73-12.29a24.17,24.17,0,0,0-20-10.5,22.52,22.52,0,0,0-19.61,10.77c-2.07,3.32-3,6.22-3.73,12Z"/><path class="cls-7" d="M1615.16,1670.24v11.47c2.07-4.56,3.45-6.36,5.93-8.43a21.32,21.32,0,0,1,12.85-4.15h2.77v6.77h-2.35c-11.75,0-19.9,10.36-19.2,24.73v33.15h-6.91v-63.54Z"/><path class="cls-7" d="M1680.91,1733.78H1674v-57h-9.53v-6.49H1674v-11.19c0-5.8,1.24-9.81,4-12.85a15.67,15.67,0,0,1,11.19-4.69,18.45,18.45,0,0,1,2.49.14v5.8c-8.43,1-10.5,3.17-10.77,11.6v11.19h10.77v6.49h-10.77Z"/><path class="cls-7" d="M1704.11,1652.56a5.19,5.19,0,0,1-5.11,5.11,5.25,5.25,0,0,1,0-10.5A5.16,5.16,0,0,1,1704.11,1652.56Zm-1.79,81.22h-6.91v-63.54h6.91Z"/><path class="cls-7" d="M1722.62,1670.24v9.53c6.08-7.46,12-10.64,19.76-10.64a20.6,20.6,0,0,1,14.09,5c4,3.59,5.39,7.73,5.39,15.47v44.2H1755v-41.16c0-6.63-.69-10.22-2.63-12.71s-6.07-4.28-10.77-4.28a18.55,18.55,0,0,0-13.81,5.8c-3.87,4-5.12,7.32-5.12,13.4v39h-6.9v-63.54Z"/><path class="cls-7" d="M1821.81,1641.65h6.9v92.13h-6.9v-12.29c-6.91,9.39-13.82,13.4-23.35,13.4-17.13,0-29.28-13.54-29.28-32.6s12.15-33.16,28.87-33.16a30.93,30.93,0,0,1,13.53,3.18c4.15,2.07,6.5,4,10.23,8.84Zm-45.45,60.78c0,15.33,9.12,26,22.24,26,13.54,0,23.34-11.19,23.34-26.53,0-15.74-9-26.24-22.51-26.24C1785.61,1675.63,1776.36,1686.4,1776.36,1702.43Z"/><path class="cls-7" d="M1843.91,1704.91c.55,6.08,1.66,9.26,4.42,13.26a23.17,23.17,0,0,0,19.2,10.23,25.2,25.2,0,0,0,21.41-12.44l5.66,3c-4.69,9.53-15.47,15.89-26.93,15.89-18.24,0-31.22-13.54-31.22-32.6,0-19.34,13-33.16,31.22-33.16,17.68,0,31.22,13.68,31.22,31.36,0,.83-.14,2.49-.28,4.42Zm47.38-6.49c-.42-5.53-1.38-8.56-3.73-12.29a24.17,24.17,0,0,0-20-10.5,22.55,22.55,0,0,0-19.62,10.77c-2.07,3.32-3,6.22-3.73,12Z"/><path class="cls-7" d="M1912.56,1670.24v11.47c2.07-4.56,3.45-6.36,5.94-8.43a21.3,21.3,0,0,1,12.85-4.15h2.76v6.77h-2.35c-11.74,0-19.89,10.36-19.2,24.73v33.15h-6.9v-63.54Z"/></g></svg>